#!OML:ASF F:\VICON\USERDATA\INSTALL\rory3\rory3.ASF
:FULLY-SPECIFIED
:DEGREES
193
root 14.7127 17.8959 5.64591 -3.28669 0.688377 6.69483
lowerback 11.1107 0.695543 -5.62217
upperback 0.820868 0.167143 -1.00188
thorax -5.39227 0.20289 2.09109
lowerneck -21.8211 -5.84119 -12.4943
upperneck 28.442 -6.6326 8.54657
head 14.1176 -3.0816 4.33571
rclavicle -8.02593e-015 1.19271e-015
rhumerus -37.4978 -15.8453 -79.2968
rradius 30.721
rwrist 7.55176
rhand -14.5253 9.96653
rfingers 7.12502
rthumb 11.6226 -19.6911
lclavicle -8.02593e-015 1.19271e-015
lhumerus -28.5854 4.51959 79.9684
lradius 34.6218
lwrist -4.75197
lhand -17.4035 28.4991
lfingers 7.12502
lthumb 8.84597 58.2937
rfemur -24.1121 -11.8293 17.5593
rtibia 48.8588
rfoot -12.7127 -16.5195
rtoes 7.61637
lfemur -0.0428217 1.45712 -26.2053
ltibia 16.8951
lfoot -8.38926 -6.35882
ltoes -4.77729
194
root 14.6946 17.8995 5.73833 -3.22865 0.45068 6.86443
lowerback 11.06 0.634692 -5.71015
upperback 0.832833 0.0777939 -1.03127
thorax -5.34447 0.159205 2.12379
lowerneck -21.9055 -5.77266 -12.3871
upperneck 28.5206 -6.52075 8.40899
head 14.1435 -3.03966 4.284
rclavicle -8.94531e-016 2.42517e-014
rhumerus -37.4413 -15.5574 -79.4773
rradius 30.9402
rwrist 7.26076
rhand -14.3511 9.84353
rfingers 7.12502
rthumb 11.7906 -19.8046
lclavicle -8.94531e-016 2.42517e-014
lhumerus -28.2475 4.68034 79.8602
lradius 34.5227
lwrist -4.532
lhand -18.0712 28.318
lfingers 7.12502
lthumb 8.20162 58.1388
rfemur -24.2789 -11.9164 17.4352
rtibia 47.1246
rfoot -12.0933 -16.4299
rtoes 5.36146
lfemur 0.426532 1.48699 -26.3551
ltibia 16.5342
lfoot -8.54107 -6.05823
ltoes -4.94855
195
root 14.6695 17.9094 5.82564 -3.1607 0.155646 6.81264
lowerback 11.1001 0.607423 -5.65906
upperback 0.788769 0.0461 -0.97746
thorax -5.41089 0.145471 2.15634
lowerneck -21.8787 -5.70347 -12.3155
upperneck 28.5181 -6.41642 8.30802
head 14.1149 -3.00134 4.24999
rclavicle -1.15544e-014 1.98785e-015
rhumerus -37.4922 -15.3152 -79.6026
rradius 31.1816
rwrist 6.99325
rhand -14.0862 9.91026
rfingers 7.12502
rthumb 12.046 -19.723
lclavicle -1.15544e-014 1.98785e-015
lhumerus -28.087 4.83272 79.7574
lradius 34.6202
lwrist -4.40838
lhand -18.3568 28.2099
lfingers 7.12502
lthumb 7.926 58.0413
rfemur -24.4528 -11.7886 17.6234
rtibia 45.27
rfoot -11.8288 -16.5988
rtoes 7.24577
lfemur 0.834845 1.58307 -26.2196
ltibia 16.2144
lfoot -8.62953 -5.77961
ltoes -5.5271
196
root 14.6426 17.918 5.90684 -3.03877 -0.169307 6.68655
lowerback 11.1312 0.582636 -5.53733
upperback 0.78588 0.0288369 -0.926285
thorax -5.4297 0.13515 2.14438
lowerneck -22.0099 -5.64797 -12.2217
upperneck 28.5027 -6.34172 8.27472
head 14.1203 -2.96042 4.2332
rclavicle -1.05853e-014 -6.36111e-015
rhumerus -37.3271 -15.0748 -79.8062
rradius 31.3496
rwrist 6.69445
rhand -14.178 9.91409
rfingers 7.12502
rthumb 11.9574 -19.7244
lclavicle -1.05853e-014 -6.36111e-015
lhumerus -27.7899 4.85335 79.6576
lradius 34.7337
lwrist -4.18789
lhand -17.6958 27.7773
lfingers 7.12502
lthumb 8.56389 57.5836
rfemur -24.7487 -11.8066 18.0062
rtibia 43.3563
rfoot -12.3842 -17.222
rtoes 14.6321
lfemur 1.18137 1.57179 -26.017
ltibia 15.8672
lfoot -8.64721 -5.23193
ltoes -6.71128
197
root 14.6166 17.9122 5.99128 -2.88997 -0.538248 6.76847
lowerback 11.0673 0.578421 -5.56474
upperback 0.763029 0.0201154 -0.980451
thorax -5.41747 0.130911 2.10421
lowerneck -22.0869 -5.605 -12.0274
upperneck 28.5194 -6.30881 8.16663
head 14.1263 -2.93822 4.16136
rclavicle -2.90723e-015 1.51076e-014
rhumerus -37.2882 -14.9976 -79.9869
rradius 31.5713
rwrist 6.50925
rhand -14.2926 9.88516
rfingers 7.12502
rthumb 11.847 -19.7597
lclavicle -2.90723e-015 1.51076e-014
lhumerus -27.4878 4.74951 79.5273
lradius 34.7231
lwrist -3.98413
lhand -17.2921 26.8938
lfingers 7.12502
lthumb 8.9535 56.6838
rfemur -24.9577 -11.8865 18.1618
rtibia 41.4696
rfoot -11.7389 -17.7426
rtoes 13.8122
lfemur 1.53234 1.56915 -26.075
ltibia 15.5142
lfoot -8.62796 -4.60037
ltoes -7.86444
198
root 14.5857 17.9113 6.07684 -2.77127 -0.963902 6.95142
lowerback 11.0004 0.594255 -5.78031
upperback 0.703033 0.0160064 -0.988196
thorax -5.44356 0.135643 2.21772
lowerneck -22.1541 -5.58977 -11.9233
upperneck 28.6427 -6.2536 7.95131
head 14.1739 -2.93294 4.06819
rclavicle 9.26834e-015 -1.03368e-014
rhumerus -37.3722 -14.9739 -79.9918
rradius 31.8194
rwrist 6.65505
rhand -14.249 9.74372
rfingers 7.12502
rthumb 11.889 -19.8987
lclavicle 9.26834e-015 -1.03368e-014
lhumerus -27.3173 4.77314 79.4427
lradius 34.6606
lwrist -4.01359
lhand -17.2506 26.2253
lfingers 7.12502
lthumb 8.99356 56.0136
rfemur -25.1235 -11.8397 18.212
rtibia 39.6723
rfoot -11.5665 -18.3862
rtoes 15.1003
lfemur 1.93256 1.79469 -26.2093
ltibia 15.1295
lfoot -8.67152 -4.1159
ltoes -9.1263
199
root 14.556 17.9152 6.16001 -2.63797 -1.31091 7.21031
lowerback 10.8984 0.589034 -6.05159
upperback 0.667008 -0.020061 -1.01468
thorax -5.42203 0.124193 2.34782
lowerneck -22.1041 -5.57456 -11.8841
upperneck 28.617 -6.22276 7.86355
head 14.1428 -2.92842 4.03023
rclavicle 5.01931e-015 4.21423e-014
rhumerus -37.3256 -14.8637 -80.0475
rradius 31.9971
rwrist 6.7214
rhand -14.1079 9.71707
rfingers 7.12502
rthumb 12.0251 -19.9175
lclavicle 5.01931e-015 4.21423e-014
lhumerus -27.2453 4.85743 79.3547
lradius 34.7947
lwrist -4.15692
lhand -17.1884 26.1888
lfingers 7.12502
lthumb 9.05354 55.9745
rfemur -25.3404 -11.8943 18.1992
rtibia 37.9998
rfoot -11.3705 -19.2358
rtoes 16.2423
lfemur 2.32214 2.06609 -26.4316
ltibia 14.6653
lfoot -8.62553 -3.74567
ltoes -9.86065
